<svg viewBox="0 0 72 72" xmlns="http://www.w3.org/2000/svg"><path d="m64.8 44-1.1-.6c-.4-.2-.6-.6-.5-1 .3-1.9.5-8.5-9.7-11.5-.2-.1-.4-.1-.6-.1l-19.6.1c-.4 0-.8.1-1.1.3l-10.3 6.9c-.2.1-.4.2-.6.2-1.9-.1-3.7.1-5.6.4-5.4 1.1-7.6 4-8.4 5.5-.2.3-.2.7-.2 1 .1 2.4-1.5 5.1.9 7.3l19.4-.1 20.4-.5 16.1-.2c.9-.1001 2.4-1.4 2.8-2.2001 1.7-2.6999-1.7-5.3999-1.9-5.4999z" fill="#ea5a47"/><path d="m17.3 46.4c-2.2 0-4 1.8-4 4s1.8 4 4 4 4-1.8 4-4-1.8-4-4-4z" fill="#9b9b9a"/><path d="m57.1 46.4c-2.2 0-4 1.8-4 4s1.8 4 4 4 4-1.8 4-4-1.8-4-4-4z" fill="#9b9b9a"/><path d="m56.1 39.3v-4.3c0-.9-.8-1.7-1.7-1.7h-21.2c-.1 0-.2 0-.2.1l-8 5.7c-.2.1-.2.4-.1.6.1.1.2.2.3.2 5.6 0 27.2-.2 30.4-.1.3-0 .5-.2.5-.5 0 .1 0 .1 0 0z" fill="#92d3f5"/><path d="m8.9 40.5 4 1.6-2.1 2.9-5 .1z" fill="#fcea2b"/><g fill="none" stroke="#000" stroke-linecap="round" stroke-linejoin="round" stroke-width="2"><path d="m47.6 51-20.6.4"/><path d="m8.1 51.4c-.9-.2-1.7-.5-1.8-1-.1-1-.3-3.8-.3-5.1 0-.5.1-1.1.4-1.5 1.1-2 4.8-6.8 14.9-6.4l10.3-6.9c.5-.3 1.1-.5 1.6-.5l19.6-.1c.3 0 .6 0 .9.1 2.2.6 11.7 4 10.4 12.6l1.1.6c.5.2.9.7 1 1.2.4 1.4.3 2.9-.2 4.3"/><path d="m24.9 39.9 30.2-.2v-4.5"/><circle cx="17.3" cy="50.4" r="5"/><circle cx="57.1" cy="50.4" r="5"/><path d="m12.3 42.9-1.8 2.2-3.7-.1"/></g></svg>